<?xml version="1.0" encoding="utf-8"?>
<!-- Generator: Adobe Illustrator 25.4.1, SVG Export Plug-In . SVG Version: 6.00 Build 0)  -->
<svg version="1.1" id="Layer_1" xmlns="http://www.w3.org/2000/svg" xmlns:xlink="http://www.w3.org/1999/xlink" x="0px" y="0px"
	 viewBox="0 0 40 39" style="enable-background:new 0 0 40 39;" xml:space="preserve">
<style type="text/css">
	.st0{fill:#FFFFFF;}
</style>
<path class="st0" d="M12.9,38.5c-0.2,0-0.4-0.1-0.6-0.2L0.8,32.7c-0.2-0.1-0.4-0.3-0.6-0.5C0.1,31.9,0,31.7,0,31.4V5.7
	C0,5.4,0.1,5.2,0.2,5c0.1-0.2,0.3-0.4,0.5-0.5c0.2-0.1,0.4-0.2,0.7-0.2c0.2,0,0.5,0,0.7,0.2l11.4,5.7c0.5,0.2,0.8,0.7,0.8,1.3v25.7
	c0,0.4-0.2,0.7-0.4,1C13.6,38.4,13.2,38.5,12.9,38.5z M2.9,30.5l8.6,4.3V12.3L2.9,8V30.5z M38.6,38.5c-0.2,0-0.4-0.1-0.6-0.2
	l-11.4-5.7c-0.2-0.1-0.4-0.3-0.6-0.5c-0.1-0.2-0.2-0.5-0.2-0.8V5.7c0-0.2,0.1-0.5,0.2-0.7c0.1-0.2,0.3-0.4,0.5-0.5
	c0.2-0.1,0.4-0.2,0.7-0.2c0.2,0,0.5,0,0.7,0.2l11.4,5.7c0.5,0.2,0.8,0.7,0.8,1.3v25.7c0,0.4-0.2,0.7-0.4,1
	C39.3,38.4,38.9,38.5,38.6,38.5z M28.6,30.5l8.6,4.3V12.3L28.6,8V30.5z"/>
<path class="st0" d="M20,20c-0.4,0-0.7-0.1-1-0.4l-5-5.1c-0.3-0.3-0.4-0.6-0.4-1c0-0.4,0.2-0.7,0.4-1c0.3-0.3,0.6-0.4,1-0.4
	c0.4,0,0.7,0.1,1,0.4l4,4l4-4c0.3-0.3,0.6-0.4,1-0.4c0.4,0,0.7,0.2,1,0.4c0.3,0.3,0.4,0.6,0.4,1c0,0.4-0.1,0.7-0.4,1l-5,5.1
	c-0.1,0.1-0.3,0.2-0.5,0.3C20.4,20,20.2,20,20,20z"/>
<path class="st0" d="M25.1,15c-0.3,0-0.6-0.1-0.8-0.2c-0.2-0.2-0.4-0.4-0.5-0.6c-0.1-0.3-0.1-0.5-0.1-0.8c0.1-0.3,0.2-0.5,0.4-0.7
	c1.1-1.1,1.7-2.5,1.7-4c0-1.5-0.6-3-1.7-4c-2.2-2.2-5.9-2.2-8.1,0c-1.1,1.1-1.7,2.5-1.7,4c0,1.5,0.6,3,1.7,4c0.3,0.3,0.4,0.6,0.4,1
	c0,0.4-0.2,0.7-0.4,1c-0.3,0.3-0.6,0.4-1,0.4c-0.4,0-0.7-0.1-1-0.4c-0.8-0.8-1.4-1.7-1.9-2.8c-0.4-1-0.7-2.2-0.6-3.3
	c0-2.3,0.9-4.4,2.5-6.1c3.2-3.2,8.9-3.2,12.1,0c1.6,1.6,2.5,3.8,2.5,6.1c0,2.3-0.9,4.4-2.5,6.1c-0.1,0.1-0.3,0.2-0.5,0.3
	C25.4,14.9,25.2,15,25.1,15z"/>
<path class="st0" d="M27.1,9.9c-0.4,0-0.7-0.2-1-0.4s-0.4-0.6-0.4-1c0-0.7-0.1-1.4-0.4-2.1c-0.1-0.4-0.1-0.7,0-1.1
	c0.1-0.3,0.4-0.6,0.8-0.8l0.5-0.2c0.2-0.1,0.5-0.1,0.7-0.1c0.2,0,0.5,0.1,0.6,0.2c0.2,0.1,0.4,0.3,0.5,0.5c0.1,0.2,0.2,0.4,0.2,0.7
	v2.8c0,0.4-0.2,0.7-0.4,1S27.5,9.9,27.1,9.9z"/>
<path class="st0" d="M12.9,38.5c-0.4,0-0.7-0.2-1-0.4c-0.3-0.3-0.4-0.6-0.4-1V11.4c0-0.3,0.1-0.6,0.2-0.8c0.2-0.2,0.4-0.4,0.7-0.5
	l0.5-0.2c0.4-0.1,0.7-0.1,1.1,0c0.3,0.1,0.6,0.4,0.8,0.8c0.3,0.7,0.7,1.3,1.3,1.9l4,4l4-4c1.1-1.1,1.7-2.5,1.7-4
	c0-0.4,0.2-0.7,0.4-1c0.3-0.3,0.6-0.4,1-0.4c0.4,0,0.7,0.2,1,0.4c0.3,0.3,0.4,0.6,0.4,1v22.9c0,0.3-0.1,0.6-0.2,0.8
	c-0.2,0.2-0.4,0.4-0.7,0.5l-14.3,5.7C13.2,38.5,13,38.5,12.9,38.5z M14.3,14.9V35l11.4-4.6V14.9L21,19.6c-0.3,0.3-0.6,0.4-1,0.4
	c-0.4,0-0.7-0.2-1-0.4L14.3,14.9z"/>
<path class="st0" d="M20,9.8c1,0,1.8-0.8,1.8-1.8c0-1-0.8-1.8-1.8-1.8c-1,0-1.8,0.8-1.8,1.8C18.2,9,19,9.8,20,9.8z"/>
</svg>
