<?xml version="1.0" encoding="utf-8"?>
<!-- Generator: Adobe Illustrator 25.4.1, SVG Export Plug-In . SVG Version: 6.00 Build 0)  -->
<svg version="1.1" id="Layer_1" xmlns="http://www.w3.org/2000/svg" xmlns:xlink="http://www.w3.org/1999/xlink" x="0px" y="0px"
	 viewBox="0 0 40 40" style="enable-background:new 0 0 40 40;" xml:space="preserve">
<style type="text/css">
	.st0{fill-rule:evenodd;clip-rule:evenodd;fill:#FFFFFF;}
	.st1{fill:#FFFFFF;}
</style>
<path class="st0" d="M18.9,3.1c4.1-0.3,8.2,1,11.4,3.5s5.5,6.2,6.2,10.2c0.8,4,0,8.2-2.1,11.8c-0.2,0.4-0.3,0.8-0.2,1.2l1.8,6.4
	l1.3-0.4l-1.3,0.4l-6.4-1.8c-0.4-0.1-0.9-0.1-1.2,0.2c-3.5,2.1-7.7,2.8-11.8,2.1c-4.1-0.8-7.7-3-10.2-6.2c-2.5-3.3-3.8-7.3-3.5-11.4
	c0.3-4.1,2-8,4.9-10.9C10.9,5.1,14.8,3.4,18.9,3.1z M29.6,37.5c-4.1,2.2-8.8,3-13.3,2.1c-4.8-0.9-9.1-3.5-12.1-7.4S-0.3,23.6,0,18.8
	c0.3-4.9,2.4-9.4,5.8-12.9c3.4-3.4,8-5.5,12.9-5.8s9.7,1.2,13.5,4.2s6.5,7.3,7.4,12.1c0.9,4.6,0.1,9.3-2.1,13.3l1.6,5.8
	c0.2,0.5,0.2,1.1,0,1.6s-0.4,1-0.8,1.4c-0.4,0.4-0.9,0.7-1.4,0.8s-1.1,0.1-1.6,0L29.6,37.5z"/>
<path class="st1" d="M20,22.3c-1.3,0-2.3-1-2.3-2.3c0-1.3,1-2.3,2.3-2.3c1.3,0,2.3,1,2.3,2.3C22.3,21.3,21.3,22.3,20,22.3z"/>
<path class="st1" d="M29.2,22.3c-1.3,0-2.3-1-2.3-2.3c0-1.3,1-2.3,2.3-2.3c1.3,0,2.3,1,2.3,2.3C31.5,21.3,30.5,22.3,29.2,22.3z"/>
<path class="st1" d="M10.8,22.3c-1.3,0-2.3-1-2.3-2.3c0-1.3,1-2.3,2.3-2.3c1.3,0,2.3,1,2.3,2.3C13.1,21.3,12,22.3,10.8,22.3z"/>
</svg>
