<?xml version="1.0" encoding="utf-8"?>
<!-- Generator: Adobe Illustrator 25.4.1, SVG Export Plug-In . SVG Version: 6.00 Build 0)  -->
<svg version="1.1" id="Layer_1" xmlns="http://www.w3.org/2000/svg" xmlns:xlink="http://www.w3.org/1999/xlink" x="0px" y="0px"
	 viewBox="0 0 40 40" style="enable-background:new 0 0 40 40;" xml:space="preserve">
<style type="text/css">
	.st0{fill:#FFFFFF;}
</style>
<path class="st0" d="M36,8.8l-9.5-8.1C26,0.3,25.4,0,24.7,0c-0.7,0-1.4,0.2-1.9,0.6l-4.1,3.1L16,1.1c-0.6-0.6-1.4-0.9-2.2-0.9
	c-0.8,0-1.6,0.3-2.2,0.9L4,8.9C2.9,9,1.9,9.6,1.1,10.4c-0.7,0.8-1.1,1.9-1.1,3V35c0,1.2,0.5,2.4,1.4,3.3c0.9,0.9,2,1.4,3.3,1.4h30.8
	c1.2,0,2.4-0.5,3.3-1.4c0.9-0.9,1.4-2,1.4-3.3V13.4c0-1.1-0.4-2.2-1.1-3.1C38.2,9.5,37.1,9,36,8.8z M36.9,27.3h-3.1
	c-0.8,0-1.6-0.3-2.2-0.9c-0.6-0.6-0.9-1.4-0.9-2.2c0-0.8,0.3-1.6,0.9-2.2c0.6-0.6,1.4-0.9,2.2-0.9h3.1V27.3z M24.6,3.1l6.6,5.7h-7.5
	l-2.9-2.9L24.6,3.1z M13.8,3.3l5.5,5.5h-11L13.8,3.3z M35.4,36.5H4.6c-0.4,0-0.8-0.2-1.1-0.5c-0.3-0.3-0.5-0.7-0.5-1.1V13.4
	c0-0.4,0.2-0.8,0.5-1.1c0.3-0.3,0.7-0.5,1.1-0.5h30.8c0.4,0,0.8,0.2,1.1,0.5c0.3,0.3,0.5,0.7,0.5,1.1V18h-3.1
	c-1.6,0-3.2,0.6-4.4,1.8c-1.2,1.2-1.8,2.7-1.8,4.4c0,1.6,0.6,3.2,1.8,4.4c1.2,1.2,2.7,1.8,4.4,1.8h3.1V35c0,0.4-0.2,0.8-0.5,1.1
	C36.2,36.3,35.8,36.5,35.4,36.5z"/>
<path class="st0" d="M32.8,23.1c-0.3,0.3-0.4,0.7-0.4,1.1c0,0.4,0.2,0.8,0.5,1.1c0.3,0.3,0.7,0.5,1.1,0.5c0.4,0,0.8-0.2,1.1-0.5
	c0.3-0.3,0.5-0.7,0.5-1.1c0-0.3-0.1-0.6-0.3-0.9c-0.2-0.3-0.4-0.5-0.7-0.6c-0.3-0.1-0.6-0.1-0.9-0.1C33.2,22.7,33,22.9,32.8,23.1z"
	/>
</svg>
