<svg xmlns="http://www.w3.org/2000/svg" viewBox="0 0 40.2 40.6"><path d="M12.9 9.1c-.4-.4-.6-.9-.6-1.4s.2-1 .6-1.4L18.5.7c.2-.2.4-.3.6-.4.2 0 .5-.1.7-.1s.5.1.8.2c.2.1.5.2.6.4l5.6 5.6c.4.3.6.8.6 1.3s-.2 1-.6 1.4c-.2.2-.4.3-.6.4-.2.1-.5.2-.8.2s-.5-.1-.8-.2c-.2-.1-.5-.2-.6-.4l-4.2-4.2-4.2 4.2c-.2.2-.4.3-.6.4-.2.1-.5.2-.8.2s-.5-.1-.8-.2c-.1-.1-.3-.2-.5-.4zm26.6 8c0 .5-.2 1-.6 1.4-.4.4-.9.6-1.4.6-.7 0-1.3-.1-2-.3v13.6c0 2.1-.8 4.1-2.3 5.6s-3.5 2.3-5.6 2.3H12c-2.1 0-4.1-.8-5.6-2.3s-2.3-3.5-2.3-5.6V18.8c-.6.2-1.3.3-2 .3-.5 0-1-.2-1.4-.6-.3-.4-.5-.9-.5-1.4s.2-1 .6-1.4.9-.6 1.4-.6c1.4 0 2-.5 3-1.6.7-.9 1.6-1.6 2.6-2 1-.5 2.1-.7 3.2-.7s2.2.2 3.2.7 1.9 1.2 2.6 2c1.1 1.1 1.7 1.6 3 1.6s2-.5 3-1.6c.7-.9 1.6-1.6 2.6-2 1-.5 2.1-.7 3.2-.7s2.2.2 3.2.7 1.9 1.2 2.6 2c1.1 1.1 1.7 1.6 3 1.6.5 0 .9.3 1.3.6.6.4.8.9.8 1.4zm-17.7 9.4h-3.9v9.8h3.9v-9.8zM32 16.6c0-.1-.4-.2-.4-.4-.4-.5-.8-.9-1.3-1.1-.5-.3-1.1-.4-1.7-.4-1.3 0-2 .5-3 1.6-.7.9-1.6 1.6-2.6 2-1 .5-2.1.7-3.2.7s-2.2-.2-3.2-.7-1.9-1.2-2.6-2c-1.1-1.1-1.7-1.6-3-1.6-1.4 0-1.8.5-2.9 1.6v16.1c0 1 .4 2 1.2 2.8.7.7 1.7 1.2 2.8 1.2h2V24.5c0-.5.2-1 .6-1.4.4-.4.9-.6 1.4-.6H24c.5 0 1 .2 1.4.6s.6.9.6 1.4v11.8h2c1 0 2-.4 2.8-1.2.7-.7 1.2-1.7 1.2-2.8V16.6z" fill="#1266e3"/></svg>