<svg version="1.1" id="Layer_1" xmlns="http://www.w3.org/2000/svg" x="0" y="0" viewBox="0 0 100.4 90.1" xml:space="preserve"><style>.st0{fill:#4c4c4c}</style><path class="st0" d="M33.8 64.4l-1-1c-5-5.6-9.9-11.3-14.9-16.9-3.8-4.2-10.5-4.6-14.6-.9-4.2 3.8-4.4 9.8-.5 14.2C10.5 68.5 18.3 77.3 26 86c4.9 5.5 12.1 5.4 16.7-.4 9.9-12.4 19.9-24.9 29.8-37.3C81 37.7 89.5 27 98 16.4c2.1-2.7 3-5.7 2.1-9C99 3.5 96.4 1 92.5.2 88.3-.6 84.7.6 82 4 69.5 19.7 57 35.3 44.5 51c-3.5 4.4-7.1 8.9-10.7 13.4z"/><path class="st0" d="M33.8 64.4c3.6-4.5 7.1-8.9 10.7-13.4C57 35.3 69.5 19.7 82 4 84.7.6 88.3-.6 92.5.2c4 .8 6.5 3.2 7.6 7.1.9 3.3 0 6.3-2.1 9-8.5 10.7-17 21.4-25.5 32-9.9 12.4-19.9 24.9-29.8 37.3-4.6 5.8-11.8 6-16.7.4-7.7-8.7-15.5-17.5-23.2-26.2-3.9-4.4-3.7-10.5.5-14.2 4.1-3.7 10.9-3.3 14.6.9 5 5.6 9.9 11.2 14.9 16.9.3.3.7.6 1 1z"/></svg>