<svg width="60" height="60" fill="none" xmlns="http://www.w3.org/2000/svg"><path d="M29.634 21.672a.88.88 0 00.731 0 11.745 11.745 0 004.055-3.043c1.613-1.898 2.466-4.173 2.466-6.58v-3.9a.879.879 0 00-.827-.877 9.539 9.539 0 01-4.19-1.223 8.594 8.594 0 01-1.295-.921.879.879 0 00-1.148 0 8.58 8.58 0 01-1.295.92 9.54 9.54 0 01-4.19 1.224.879.879 0 00-.827.878v3.899c0 2.407.853 4.683 2.466 6.58a11.743 11.743 0 004.055 3.043zM24.872 8.949a11.105 11.105 0 004.14-1.38c.342-.198.671-.415.988-.65.316.235.646.452.987.65a11.105 11.105 0 004.141 1.38v3.1c0 1.984-.708 3.866-2.047 5.442A9.925 9.925 0 0130 19.897a9.924 9.924 0 01-3.08-2.406c-1.34-1.576-2.048-3.458-2.048-5.442v-3.1zm34.87 18.57a.879.879 0 00-1.243 0l-5.081 5.082-12.052-12.306a13.246 13.246 0 001.823-5.015l3.426-3.45a.88.88 0 00-1.248-1.238l-2.052 2.066a13.332 13.332 0 00-26.64.235l-2.384-2.313a.879.879 0 00-1.224 1.262l3.78 3.666a13.25 13.25 0 001.843 4.877L6.655 32.675 1.501 27.52a.881.881 0 00-1.244 0 .88.88 0 000 1.243l5.628 5.627a.854.854 0 00.31.31l.775.775a4.365 4.365 0 003.107 1.287c.409 0 .816-.056 1.21-.168.021.596.086 1.19.193 1.778-.41.188-.782.448-1.1.767l-1.93 1.93a3.809 3.809 0 003.046 6.484 3.805 3.805 0 004.142 4.144 3.808 3.808 0 004.143 4.141 3.782 3.782 0 001.099 3.046 3.813 3.813 0 005.386 0l1.269-1.27 1.27 1.27a3.806 3.806 0 006.482-3.046 3.806 3.806 0 004.145-4.141 3.808 3.808 0 004.143-4.143 3.808 3.808 0 003.044-6.485l-1.065-1.066a12.873 12.873 0 003.12-3.42 4.41 4.41 0 002.931-.153 4.364 4.364 0 001.425-.955l6.712-6.712a.88.88 0 000-1.243zM18.545 14.994l-.006-.038a11.575 11.575 0 1120.98 4.954l-.006.009a11.57 11.57 0 01-20.968-4.925zm-8.468 20.012a2.62 2.62 0 01-1.864-.773l-.315-.315 11.837-12.086a13.45 13.45 0 002.37 2.238L11.94 34.233a2.618 2.618 0 01-1.863.772zm2.516 10.206a2.052 2.052 0 01-2.9 0 2.05 2.05 0 010-2.9l1.93-1.93a2.05 2.05 0 112.9 2.9l-1.93 1.93zm2.694 4.744a2.038 2.038 0 01-1.45-.6 2.053 2.053 0 010-2.9l1.929-1.93a2.051 2.051 0 012.9 2.9l-1.93 1.93a2.037 2.037 0 01-1.45.6zm2.693 3.543a2.05 2.05 0 010-2.9l1.929-1.93a2.05 2.05 0 012.9 2.9l-1.93 1.93a2.053 2.053 0 01-2.9 0zm8.972 2.213l-1.929 1.93a2.053 2.053 0 01-2.9 0 2.05 2.05 0 010-2.9l1.93-1.93a2.05 2.05 0 012.9 2.9zm19.025-11.95a2.051 2.051 0 01-3.5 1.45l-6.298-6.297a.878.878 0 10-1.243 1.243l6.297 6.297a2.05 2.05 0 11-2.9 2.9l-6.297-6.297a.88.88 0 00-1.243 1.243l6.297 6.297a2.05 2.05 0 11-2.9 2.9L27.893 47.2a.88.88 0 00-1.244 1.243l6.298 6.297a2.051 2.051 0 01-2.9 2.901l-1.333-1.333a3.81 3.81 0 00-3.563-5.839 3.809 3.809 0 00-4.143-4.143 3.81 3.81 0 00-4.143-4.143 3.803 3.803 0 00-3.662-4.154 10.81 10.81 0 01-.157-2.416l.137-.137.001-.001 10.4-10.4.035-.039a13.234 13.234 0 004.434 1.487l-5.312 5.936a2.732 2.732 0 00.104 3.752 4.993 4.993 0 007.053 0l4.689-4.69 10.79 10.79a2.037 2.037 0 01.6 1.45zm.283-6.841a11.26 11.26 0 01-1.962 1.827L35.35 29.8a.824.824 0 01-.142-.142.878.878 0 00-1.243 0l-5.31 5.31a3.233 3.233 0 01-4.567.001.973.973 0 01-.037-1.337l6.237-6.97a13.245 13.245 0 006.124-1.642c.116.151.242.295.377.43l10.026 10.026a4.9 4.9 0 00.303.276c-.26.408-.547.798-.858 1.169zm5.526-2.688a2.636 2.636 0 01-3.727 0L38.032 24.206a2.707 2.707 0 01-.13-.142 13.45 13.45 0 002.429-2.314l11.844 12.094-.389.388z" fill="#fff"/></svg>