<svg width="48" height="47" fill="none" xmlns="http://www.w3.org/2000/svg"><path d="M8.028 46.702H39.3c.448 0 .746-.298.746-.746V22.073l1.568 1.418c1.194 1.045 2.985 1.045 4.105 0 1.343-1.194 1.343-3.284 0-4.553L25.717.728a3.052 3.052 0 00-3.956 0l-8.135 7.388V4.385h1.269c.447 0 .746-.299.746-.747 0-.447-.299-.746-.746-.746H5.342c-.448 0-.747.299-.747.746 0 .448.299.747.747.747H6.61V14.46l-4.926 4.478c-1.343 1.195-1.343 3.359 0 4.553 1.12 1.045 2.986 1.045 4.105 0l1.568-1.418v14.106H5.342v-1.343c0-.448-.299-.747-.747-.747s-.746.299-.746.747v1.343h-2.24v-1.343c0-.448-.298-.747-.745-.747-.448 0-.747.299-.747.747v7.985c0 .448.299.747.747.747.447 0 .746-.299.746-.747v-1.343h2.239v1.343c0 .448.298.747.746.747s.747-.299.747-.747v-1.343h1.94v4.403c0 .448.373.821.746.821zm16.57-1.492V29.387H34.3V45.21h-9.703zM8.027 4.385h4.03V9.46l-4.03 3.657V4.385zM4.744 22.372a1.59 1.59 0 01-2.09 0c-.671-.598-.671-1.717 0-2.314 2.09-1.866-7.463 6.717 20.077-18.21a1.397 1.397 0 011.94 0l20.077 18.21c.672.597.672 1.716 0 2.314a1.59 1.59 0 01-2.09 0L24.225 5.654c-.299-.224-.746-.224-.97 0-12.912 11.642-10.076 9.03-18.51 16.718zM23.703 7.22l14.925 13.51v24.48h-2.836V29.387h.448c.448 0 .746-.298.746-.746s-.298-.746-.746-.746H22.657c-.448 0-.747.298-.747.746s.299.746.747.746h.448V45.21H8.775V20.73L23.702 7.22zM1.61 39.985v-2.388h2.239v2.388h-2.24zm3.732 0v-2.388h1.94v2.388h-1.94z" fill="#4288F0"/><path d="M23.702 23.864c3.06 0 5.597-2.537 5.597-5.597 0-3.06-2.537-5.598-5.597-5.598-3.06 0-5.598 2.538-5.598 5.598s2.538 5.597 5.598 5.597zm-4.03-4.85h3.283v3.283c-1.642-.299-2.985-1.642-3.284-3.284zm4.776 3.283v-3.284h3.284c-.299 1.642-1.642 2.985-3.284 3.284zm3.284-4.777h-3.284v-3.284c1.642.299 2.985 1.643 3.284 3.284zm-4.777-3.284v3.284h-3.284c.299-1.641 1.642-2.985 3.284-3.284zM11.163 41.18h9.553c.448 0 .747-.298.747-.746V32c0-.447-.299-.746-.747-.746h-9.553c-.448 0-.746.299-.746.746v8.36c0 .447.373.82.746.82zM11.91 37h3.284v2.688H11.91V37zm4.777 2.688V37h3.284v2.687h-3.284zm3.284-4.18h-3.284V32.82h3.284v2.687zm-4.777-2.761v2.687H11.91v-2.687h3.284zm11.12 2.612c-.447 0-.745.299-.745.746v1.493c0 .448.298.746.746.746s.746-.298.746-.746v-1.493c0-.373-.373-.746-.746-.746zm18.212 11.494c.447 0 .746-.299.746-.747v-5.821c1.492-.373 2.612-1.642 2.612-3.284 0-1.418-1.194-5.672-3.358-5.672-2.165 0-3.359 4.254-3.359 5.672 0 1.567 1.12 2.91 2.612 3.284v5.821c0 .448.299.747.747.747zM42.659 37c0-1.567 1.194-4.18 1.866-4.18.671 0 1.865 2.687 1.865 4.18 0 .746-.447 1.418-1.12 1.717v-.672c0-.448-.298-.747-.745-.747-.448 0-.747.299-.747.747v.672A1.886 1.886 0 0142.658 37z" fill="#4288F0"/></svg>