<svg width="61" height="60" fill="none" xmlns="http://www.w3.org/2000/svg"><path d="M59.096 6.03c.58 0 .967-.386.967-.967V2.84c0-1.645-1.16-2.805-2.805-2.805h-2.031a2.807 2.807 0 00-2.805 2.805v1.064c-.87 0-1.644-.194-2.418-.387L34.53.13a8.643 8.643 0 00-4.933.58l-8.704 4.062c-.484.194-.677.774-.484 1.257.29.774 1.16.484 1.257.484l8.705-4.062c1.257-.484 2.515-.677 3.772-.387L49.617 5.45c.774.194 1.741.29 2.805.387v13.54c-1.547-.096-5.03 1.258-5.03 1.258-1.16.387-2.514.58-3.965.58h-8.414a1.94 1.94 0 01-1.935-1.934 1.94 1.94 0 011.935-1.934h3.868c1.354 0 2.515-.87 2.902-2.128s-.097-2.612-1.16-3.289l-5.997-4.062c-.194 0-.387-.097-.58-.097H6.963c-1.644 0-2.902 1.258-2.902 2.902v13.54c0 .581.387.968.967.968s.968-.387.968-.967V10.673c0-.58.387-.967.967-.967h26.791l5.803 3.869c.58.386.484.967.387 1.16-.096.194-.29.774-1.064.774h-3.868a3.88 3.88 0 00-3.87 3.869 3.88 3.88 0 003.87 3.869h8.414c1.644 0 3.192-.29 4.546-.774 0 0 3.288-1.354 4.45-1.16v1.063a2.807 2.807 0 002.804 2.805h2.031a2.807 2.807 0 002.805-2.805V8.74c0-.58-.387-.968-.967-.968s-.967.387-.967.968v13.637c0 .387-.29.87-.87.87h-2.032c-.387 0-.87-.29-.87-.87V2.84c0-.387.29-.87.87-.87h2.031c.484 0 .87.386.87.87v2.224a.97.97 0 00.968.967zM43.717 29.05c.58 0 .968-.387.968-.967s.386-.968.967-.968c.58 0 .967-.386.967-.967 0-.58-.387-.967-.967-.967-1.258 0-2.322.774-2.708 1.934h-5.03c-.58 0-.967.387-.967.968 0 .58.387.967.967.967h5.803z" fill="#4288F0"/><path d="M35.883 12.607c0-.58-.387-.967-.967-.967H10.833c-.58 0-.968.387-.968.967s-.387.968-.967.968-.967.386-.967.967v11.606c0 .58.387.967.967.967s.967.387.967.968c0 .58.387.967.967.967h23.31c.58 0 .967-.387.967-.968 0-.58-.387-.967-.967-.967H11.606c-.29-.87-.967-1.45-1.74-1.74v-10.06c.87-.29 1.45-.967 1.74-1.74h23.31a.97.97 0 00.967-.968zM15.475 41.623c-1.644-.58-3.288-.677-4.933-.193-.483.096-.87.677-.677 1.16.097.484.677.87 1.16.677 1.258-.29 2.419-.29 3.773.194l1.45.483c.098 0 .968.194 1.258-.58.194-.483-.097-1.064-.58-1.257l-1.451-.484z" fill="#4288F0"/><path d="M52.615 39.495c-.967-.773-2.224-.967-3.385-.677l-14.314 5.707c-.194-2.031-1.741-3.482-3.869-3.482h-4.643c-1.45 0-2.804-.194-3.965-.677l-7.06-2.322a8.001 8.001 0 00-5.61 0l-2.031.678v-.968c0-1.644-1.258-2.901-2.902-2.901H2.902C1.257 34.853 0 36.11 0 37.754v1.935c0 .58.387.967.967.967s.967-.387.967-.967v-1.935c0-.58.387-.967.968-.967h1.934c.58 0 .967.387.967.967v19.344c0 .58-.387.968-.967.968H2.902c-.58 0-.968-.387-.968-.968V43.171c0-.58-.386-.968-.967-.968-.58 0-.967.387-.967.968v13.927C0 58.743 1.257 60 2.902 60h1.934c1.644 0 2.902-1.257 2.902-2.902v-1.257s4.255-1.934 8.995-.484l7.253 2.128c.968.194 4.643.774 7.931-.58l6.094-3.289c.483-.29.677-.87.387-1.354-.29-.483-.87-.677-1.354-.386l-5.61 3.288c-2.128.87-4.45 1.064-6.674.483l-7.254-2.127c-4.739-1.451-9.575.29-9.575.29V40.85l2.612-.968c1.45-.483 2.804-.483 4.352 0l7.06 2.322c1.355.483 2.902.773 4.546.773h4.643a1.94 1.94 0 011.934 1.935 1.94 1.94 0 01-1.934 1.934h-10.64c-.58 0-.967.387-.967.967s.387.967.968.967h10.639a3.9 3.9 0 003.385-1.934l15.282-6.093c1.45-.484 2.418 1.257 2.418 1.934 0 .774-.484 1.548-1.258 1.838l-4.449 2.418c-.483.29-.677.87-.387 1.354.387.677 1.16.483 1.354.387l4.45-2.418c1.354-.677 2.32-2.031 2.32-3.676a4.486 4.486 0 00-1.644-3.095z" fill="#4288F0"/><path d="M43.137 48.78l-1.838.968c-.483.29-.677.87-.386 1.354.386.677 1.16.484 1.354.387l1.837-.967c.484-.29.677-.87.387-1.355-.29-.483-.87-.677-1.354-.386zM13.734 17.444h.967c.58 0 .968-.387.968-.967s-.387-.967-.968-.967h-1.257c-.967 0-1.644.677-1.644 1.644v1.258c0 .58.387.967.967.967s.967-.387.967-.967v-.968zm-.967 3.87c-.58 0-.967.386-.967.966v1.935c0 .58.387.967.967.967s.967-.387.967-.967V22.28c0-.58-.387-.967-.967-.967zM6.964 32.918h40.622c1.644 0 2.902-1.258 2.902-2.902v-5.803c0-.58-.387-.967-.968-.967-.58 0-.967.387-.967.967v5.803c0 .58-.386.967-.967.967H6.964c-.58 0-.967-.387-.967-.967v-1.934c0-.58-.387-.968-.968-.968-.58 0-.967.387-.967.968v1.934c0 1.644 1.258 2.902 2.902 2.902z" fill="#4288F0"/></svg>