<svg width="15" height="15" fill="none" xmlns="http://www.w3.org/2000/svg"><path d="M12.115 5.77h-1.154a1.733 1.733 0 00-1.73-1.731V2.885a2.888 2.888 0 012.884 2.884z" fill="#fff"/><path d="M14.423 5.77h-1.154A4.043 4.043 0 009.23 1.73V.577a5.198 5.198 0 015.193 5.193zM10 10.663l1.292-1.292a1.25 1.25 0 011.348-.277l1.574.63a1.25 1.25 0 01.786 1.16v2.863a1.25 1.25 0 01-1.318 1.251C2.65 14.312.422 4.968.008 1.39A1.247 1.247 0 011.251 0h2.811a1.25 1.25 0 011.161.786l.63 1.574a1.25 1.25 0 01-.277 1.348L4.283 5S5 10.038 10 10.663z" fill="#fff"/></svg>