<svg width="18" height="18" fill="none" xmlns="http://www.w3.org/2000/svg"><path d="M13.845 3.06a1.005 1.005 0 101.01 1c-.01-.55-.46-1-1.01-1zM9.374 4.35a4.22 4.22 0 10.002 8.442 4.22 4.22 0 00-.002-8.442zm0 6.93c-1.49 0-2.7-1.21-2.7-2.7 0-1.49 1.21-2.7 2.7-2.7 1.49 0 2.7 1.21 2.7 2.7 0 1.49-1.21 2.7-2.7 2.7z" fill="#E7FAFF"/><path d="M12.724 17.14h-6.84c-2.84 0-5.15-2.31-5.15-5.15V5.15C.734 2.31 3.044 0 5.884 0h6.84c2.84 0 5.15 2.31 5.15 5.15v6.84c0 2.84-2.31 5.15-5.15 5.15zM5.884 1.61c-1.95 0-3.54 1.59-3.54 3.54v6.84c0 1.95 1.59 3.54 3.54 3.54h6.84c1.95 0 3.54-1.59 3.54-3.54V5.15c0-1.95-1.59-3.54-3.54-3.54h-6.84z" fill="#E7FAFF"/></svg>