<svg width="14" height="18" fill="none" xmlns="http://www.w3.org/2000/svg"><path fill-rule="evenodd" clip-rule="evenodd" d="M5.756 11.562c-.01.05-.03.09-.04.14-.65 2.55-.72 3.12-1.39 4.31-.32.56-.68 1.1-1.08 1.61-.05.06-.09.13-.18.11-.1-.02-.11-.11-.12-.19-.11-.78-.17-1.55-.14-2.34.03-1.02.16-1.37 1.48-6.9.02-.08 0-.15-.03-.23-.31-.85-.38-1.71-.1-2.59.6-1.89 2.73-2.03 3.11-.47.23.96-.38 2.22-.85 4.09-.39 1.54 1.42 2.63 2.97 1.51 1.43-1.03 1.98-3.51 1.87-5.27-.21-3.5-4.05-4.26-6.49-3.13-2.79 1.29-3.43 4.76-2.17 6.34.16.2.28.32.23.53-.08.32-.15.64-.24.95-.07.23-.26.32-.5.22-.47-.19-.85-.48-1.17-.87-1.07-1.33-1.38-3.95.04-6.17 1.57-2.46 4.49-3.46 7.15-3.16 3.18.36 5.2 2.54 5.57 5 .17 1.12.05 3.9-1.53 5.86-1.82 2.25-4.76 2.4-6.12 1.02-.08-.11-.17-.24-.27-.37z" fill="#E7FAFF"/></svg>