<svg width="12" height="12" fill="none" xmlns="http://www.w3.org/2000/svg"><path d="M10.234 1.714h-1.02V.43A.429.429 0 008.786 0H4.34A4.346 4.346 0 000 4.341v7.23a.429.429 0 10.857 0v-7.23A3.489 3.489 0 014.341.857h4.016v.857H7.341a1.77 1.77 0 00-1.77 1.77v.373A.429.429 0 006 4.286h5.571A.429.429 0 0012 3.857v-.373a1.77 1.77 0 00-1.766-1.77zM6.43 3.43a.917.917 0 01.912-.858h2.893a.917.917 0 01.909.858H6.429z" fill="#6E6E6E"/><path d="M9.823 6.553v-.857a.429.429 0 10-.857 0v.857a.429.429 0 10.857 0zm.437.038a.429.429 0 00-.429.429v.857a.429.429 0 10.857 0V7.02a.428.428 0 00-.428-.429zm-1.311.579a.429.429 0 00-.43.429v.857a.429.429 0 10.858 0v-.857a.429.429 0 00-.428-.429zm.908 1.401A.429.429 0 009.43 9v.857a.428.428 0 10.857 0V9a.429.429 0 00-.429-.429zm.609-4.161a.429.429 0 00-.429.429v.857a.428.428 0 10.857 0v-.857a.428.428 0 00-.428-.429zM8.734 6.279V5.42a.429.429 0 10-.857 0v.858a.429.429 0 10.857 0zm-1.11-.42V5a.429.429 0 10-.857 0v.858a.429.429 0 10.857 0zm.519 2.018V7.02a.429.429 0 10-.857 0v.857a.429.429 0 10.857 0zm.163.973a.429.429 0 00-.429.429v.857a.429.429 0 10.857 0v-.857a.429.429 0 00-.428-.429z" fill="#6E6E6E"/></svg>