<svg width="12" height="10" fill="none" xmlns="http://www.w3.org/2000/svg"><path d="M11.52 9.12H.48A.48.48 0 010 8.64V5.76a.48.48 0 01.48-.48h11.04a.48.48 0 01.48.48v2.88a.48.48 0 01-.48.48zM.96 8.16h10.08V6.24H.96v1.92zm5.76-3.836H5.28a.48.48 0 01-.48-.48V3.36H3.36v.48a.48.48 0 01-.48.48H1.44a.48.48 0 01-.48-.48v-2.4C.96.646 1.606 0 2.4 0h7.2c.794 0 1.44.646 1.44 1.44v2.4a.48.48 0 01-.48.48H9.12a.48.48 0 01-.48-.48v-.48H7.2v.484a.48.48 0 01-.48.48zm-.96-.96l.48-.004c0-.53.43-.96.96-.96h1.44c.53 0 .96.43.96.96h.48V1.44A.48.48 0 009.6.96H2.4a.48.48 0 00-.48.48v1.92h.48c0-.53.43-.96.96-.96H4.8c.53 0 .96.43.96.96v.004z" fill="#6E6E6E"/></svg>