<svg width="16" height="18" fill="none" xmlns="http://www.w3.org/2000/svg"><path d="M14.437 12.524V5.552c0-3.34-3.332-3.33-3.332-3.33h-1.11V0L6.664 3.332l3.331 3.331v-2.22h1.11c.98 0 1.11 1.11 1.11 1.11v6.97a2.208 2.208 0 00-1.11 1.914 2.222 2.222 0 004.443 0 2.212 2.212 0 00-1.11-1.913h-.001zm-1.11 3.024a1.11 1.11 0 01-1.111-1.11 1.11 1.11 0 012.22 0 1.11 1.11 0 01-1.11 1.11zM1.11 5.476v6.97c0 3.341 3.332 3.333 3.332 3.333h1.11V18l3.332-3.331-3.332-3.332v2.22h-1.11c-.979 0-1.11-1.11-1.11-1.11v-6.97a2.21 2.21 0 001.11-1.914 2.222 2.222 0 00-4.442 0c0 .82.448 1.528 1.11 1.914zm1.111-.756a1.11 1.11 0 110-2.22 1.11 1.11 0 010 2.22z" fill="#fff"/></svg>