<svg width="112" height="31" fill="none" xmlns="http://www.w3.org/2000/svg"><path d="M66.73 30.93c-1.016 0-2.033-.037-3.05-.108-1-.053-2.043-.196-3.132-.428V12.409a24.532 24.532 0 012.81-.348 32.608 32.608 0 012.837-.134c1.178 0 2.258.089 3.239.267 1 .161 1.856.446 2.57.857a4.42 4.42 0 011.659 1.632c.41.66.615 1.481.615 2.463 0 1.48-.714 2.65-2.14 3.506 1.177.446 1.98 1.052 2.408 1.82.428.767.642 1.632.642 2.596 0 1.945-.713 3.408-2.14 4.39-1.41.98-3.516 1.471-6.317 1.471zm-2.114-8.324v4.79c.304.036.634.063.99.08.358.018.75.027 1.178.027 1.25 0 2.257-.178 3.025-.535.767-.357 1.15-1.017 1.15-1.98 0-.857-.32-1.463-.963-1.82-.642-.375-1.561-.562-2.757-.562h-2.623zm0-3.185h2.034c1.285 0 2.204-.16 2.757-.482.553-.34.83-.874.83-1.606 0-.75-.286-1.276-.857-1.579-.57-.303-1.41-.455-2.515-.455-.357 0-.74.009-1.151.027-.41 0-.776.018-1.097.053v4.042zm19.481-7.494c2.766 0 4.89.49 6.37 1.472 1.481.963 2.221 2.551 2.221 4.764 0 2.23-.749 3.845-2.248 4.844-1.498.981-3.64 1.472-6.423 1.472h-1.311v6.21H78.53v-18.28c.91-.179 1.874-.304 2.89-.375a38.792 38.792 0 012.677-.107zm.268 3.56c-.303 0-.607.008-.91.026a36.78 36.78 0 00-.75.054v5.352h1.312c1.445 0 2.534-.196 3.265-.588.732-.393 1.097-1.125 1.097-2.195 0-.517-.098-.946-.294-1.285a1.935 1.935 0 00-.803-.803c-.339-.214-.758-.356-1.258-.428a9.472 9.472 0 00-1.66-.134zM99.93 27.29c.196.017.419.035.669.053h.936c2.088 0 3.631-.527 4.631-1.58 1.017-1.052 1.525-2.506 1.525-4.362 0-1.945-.482-3.417-1.445-4.416-.964-.999-2.489-1.499-4.577-1.499-.285 0-.58.01-.883.027-.303 0-.589.018-.856.054v11.722zM112 21.4c0 1.606-.25 3.007-.749 4.202-.5 1.196-1.214 2.186-2.141 2.97-.91.786-2.026 1.375-3.346 1.767-1.32.393-2.801.59-4.443.59-.749 0-1.623-.037-2.623-.108a19.963 19.963 0 01-2.944-.375V12.382a22.965 22.965 0 012.998-.348 40.83 40.83 0 012.703-.107c1.588 0 3.024.178 4.309.535 1.303.357 2.418.919 3.346 1.686.927.767 1.641 1.749 2.141 2.944.499 1.196.749 2.632.749 4.31z" fill="#fff"/><path fill-rule="evenodd" clip-rule="evenodd" d="M31.535 2.063a3.903 3.903 0 00-5.916 0L6.529 24.24c-2.179 2.53-.381 6.45 2.958 6.45h38.18c3.338 0 5.136-3.92 2.958-6.45L31.535 2.063zM9.487 29.573h38.18c2.384 0 3.668-2.8 2.113-4.607L30.69 2.791a2.788 2.788 0 00-4.226 0L7.374 24.966c-1.556 1.807-.272 4.607 2.113 4.607z" fill="#fff"/><path d="M42.09 30.688H3.91c-3.338 0-5.135-3.92-2.957-6.45l19.09-22.175a3.903 3.903 0 015.916 0l19.09 22.176c2.178 2.53.38 6.45-2.958 6.45z" fill="#fff"/><path d="M28.98 23h-9.96c-.87 0-1.34-1.046-.771-1.72l4.98-5.918a1.003 1.003 0 011.543 0l4.98 5.917c.568.675.099 1.721-.772 1.721z" fill="#5C8EFF"/></svg>