<svg width="94" height="21" viewBox="0 0 94 21" fill="none" xmlns="http://www.w3.org/2000/svg">
<path d="M90.4521 20.5L0 20.5L-1.79217e-06 8.34888e-06L89.8931 4.90167e-07C91.3063 3.66624e-07 92.0129 3.04852e-07 92.3638 0.2053C92.9684 0.558995 93.2477 1.28399 93.0367 1.95187C92.9142 2.33954 92.3902 2.81359 91.3423 3.7617L91.3423 3.76172L86.6451 8.0116C86.1783 8.43392 85.9449 8.64508 85.821 8.88083C85.6094 9.28351 85.5919 9.76048 85.7735 10.1776C85.8799 10.4218 86.0972 10.6494 86.5318 11.1047L92.0145 16.8486C92.9057 17.7822 93.3513 18.249 93.4483 18.6305C93.6152 19.2871 93.3212 19.9741 92.731 20.3067C92.3881 20.5 91.7428 20.5 90.4521 20.5Z" fill="#1266E3"/>
</svg>
